ModelForces
version=1
nRows=4
nColumns=157
inDegrees=no

This file contains the forces exerted on a model during a simulation.

A force is a generalized force, meaning that it can be either a force (N) or a torque (Nm).

Units are S.I. units (second, meters, Newtons, ...)
Angles are in degrees.

endheader
time	glut_med1_r	glut_med2_r	glut_med3_r	glut_min1_r	glut_min2_r	glut_min3_r	semimem_r	semiten_r	bifemlh_r	bifemsh_r	sar_r	add_long_r	add_brev_r	add_mag1_r	add_mag2_r	add_mag3_r	tfl_r	pect_r	grac_r	glut_max1_r	glut_max2_r	glut_max3_r	iliacus_r	psoas_r	quad_fem_r	gem_r	peri_r	rect_fem_r	vas_med_r	vas_int_r	vas_lat_r	med_gas_r	lat_gas_r	soleus_r	tib_post_r	flex_dig_r	flex_hal_r	tib_ant_r	per_brev_r	per_long_r	per_tert_r	ext_dig_r	ext_hal_r	glut_med1_l	glut_med2_l	glut_med3_l	glut_min1_l	glut_min2_l	glut_min3_l	semimem_l	semiten_l	bifemlh_l	bifemsh_l	sar_l	add_long_l	add_brev_l	add_mag1_l	add_mag2_l	add_mag3_l	tfl_l	pect_l	grac_l	glut_max1_l	glut_max2_l	glut_max3_l	iliacus_l	psoas_l	quad_fem_l	gem_l	peri_l	rect_fem_l	vas_med_l	vas_int_l	vas_lat_l	med_gas_l	lat_gas_l	soleus_l	tib_post_l	flex_dig_l	flex_hal_l	tib_ant_l	per_brev_l	per_long_l	per_tert_l	ext_dig_l	ext_hal_l	ercspn_r	ercspn_l	intobl_r	intobl_l	extobl_r	extobl_l	femur_lat_meniscii_r.femur_lat_r.force.X	femur_lat_meniscii_r.femur_lat_r.force.Y	femur_lat_meniscii_r.femur_lat_r.force.Z	femur_lat_meniscii_r.femur_lat_r.torque.X	femur_lat_meniscii_r.femur_lat_r.torque.Y	femur_lat_meniscii_r.femur_lat_r.torque.Z	femur_lat_meniscii_r.meniscus_lat_r.force.X	femur_lat_meniscii_r.meniscus_lat_r.force.Y	femur_lat_meniscii_r.meniscus_lat_r.force.Z	femur_lat_meniscii_r.meniscus_lat_r.torque.X	femur_lat_meniscii_r.meniscus_lat_r.torque.Y	femur_lat_meniscii_r.meniscus_lat_r.torque.Z	femur_med_meniscii_r.femur_med_r.force.X	femur_med_meniscii_r.femur_med_r.force.Y	femur_med_meniscii_r.femur_med_r.force.Z	femur_med_meniscii_r.femur_med_r.torque.X	femur_med_meniscii_r.femur_med_r.torque.Y	femur_med_meniscii_r.femur_med_r.torque.Z	femur_med_meniscii_r.meniscus_med_r.force.X	femur_med_meniscii_r.meniscus_med_r.force.Y	femur_med_meniscii_r.meniscus_med_r.force.Z	femur_med_meniscii_r.meniscus_med_r.torque.X	femur_med_meniscii_r.meniscus_med_r.torque.Y	femur_med_meniscii_r.meniscus_med_r.torque.Z	femur_med_tibia_r.tibia_upper_r.force.X	femur_med_tibia_r.tibia_upper_r.force.Y	femur_med_tibia_r.tibia_upper_r.force.Z	femur_med_tibia_r.tibia_upper_r.torque.X	femur_med_tibia_r.tibia_upper_r.torque.Y	femur_med_tibia_r.tibia_upper_r.torque.Z	femur_med_tibia_r.femur_med_r.force.X	femur_med_tibia_r.femur_med_r.force.Y	femur_med_tibia_r.femur_med_r.force.Z	femur_med_tibia_r.femur_med_r.torque.X	femur_med_tibia_r.femur_med_r.torque.Y	femur_med_tibia_r.femur_med_r.torque.Z	femur_lat_tibia_r.tibia_upper_r.force.X	femur_lat_tibia_r.tibia_upper_r.force.Y	femur_lat_tibia_r.tibia_upper_r.force.Z	femur_lat_tibia_r.tibia_upper_r.torque.X	femur_lat_tibia_r.tibia_upper_r.torque.Y	femur_lat_tibia_r.tibia_upper_r.torque.Z	femur_lat_tibia_r.femur_lat_r.force.X	femur_lat_tibia_r.femur_lat_r.force.Y	femur_lat_tibia_r.femur_lat_r.force.Z	femur_lat_tibia_r.femur_lat_r.torque.X	femur_lat_tibia_r.femur_lat_r.torque.Y	femur_lat_tibia_r.femur_lat_r.torque.Z	aACL_R	pACL_R	aPCL_R	pPCL_R	aMCL_R	mMCL_R	pMCL_R	aLCL_R	mLCL_R	pLCL_R	ground_prescribedForce_fx	ground_prescribedForce_fy	ground_prescribedForce_fz	ground_prescribedForce_px	ground_prescribedForce_py	ground_prescribedForce_pz
      0.23493852	      9.10143812	      6.73100193	      7.22045691	      3.13583582	      3.69618418	      3.84828009	     10.59782862	      4.83242961	     10.69401235	      9.12931721	      1.81499304	      6.68220346	      4.87641425	      3.46369015	      2.92364378	      4.83691791	      4.66825920	      2.64309988	      1.81247809	      4.34361694	      6.60416356	      4.94518845	     24.58543641	     15.15726539	      4.29264005	      3.16938599	      5.25307360	     13.71129102	      7.66805322	      8.21307541	     10.74894898	      4.23476573	      2.18048223	      8.48646208	      8.90301402	      2.61068390	      2.18774768	     15.68147693	      4.79840998	      9.29818297	      0.00000000	      7.02518308	      2.57968829	      9.10143812	      6.73100193	      7.22045691	      3.13583582	      3.69618418	      3.84828009	     10.96609804	      4.91512921	      9.54632068	      8.54214173	      1.79095889	      6.68220346	      4.87641425	      3.46369015	      2.92364378	      4.83691791	      4.62320157	      2.64309988	      1.84215968	      4.34361694	      6.60416356	      4.94518845	     24.58543641	     15.15726539	      4.29264005	      3.16938599	      5.25307360	     13.20947434	      7.86550326	      9.05263491	      9.72664812	     18.54517105	      8.61381248	     39.93253385	     45.94233820	      3.68224179	      3.78261754	     10.37500114	      5.45896589	     14.95725365	      2.34487408	      6.74976767	      2.12278742	     29.50283095	     29.50283095	     10.77416779	     10.77416779	     28.39950356	     28.39950356	     29.79579199	     68.87487022	     11.60944336	     -6.50984898	      0.71357170	     12.50133745	    -29.79579199	    -68.87487022	    -11.60944336	      2.32321435	     -0.84493704	     -0.97693778	     44.07926810	     94.93450797	      9.36401852	     -1.82509168	     -1.02716317	     18.88287598	    -44.07926810	    -94.93450797	     -9.36401852	     -1.39100568	      0.83936012	     -1.83974354	     -0.63466854	     -6.15103311	      1.89849020	     -0.13658930	     -0.01458423	     -0.09332884	      0.63466854	      6.15103311	     -1.89849020	      0.89232746	      0.01358167	      0.34272514	      0.00000000	      0.00000000	      0.00000000	      0.00000000	      0.00000000	      0.00000000	      0.00000000	      0.00000000	      0.00000000	      0.00000000	      0.00000000	      0.00000000	     21.92806049	     50.20127789	      0.00000000	      0.00000000	      0.00000000	      1.01303122	     11.50033583	      4.81109103	      0.00000000	      5.99347325	    110.00000000	      0.00000000	      0.00000000	      0.03000000	     -0.03000000	      0.00000000
      0.23531649	      9.09377298	      6.72576621	      7.21477056	      3.13349969	      3.69364403	      3.84504656	     10.58878171	      4.82924564	     10.67872775	      9.12000795	      1.80327437	      6.67694424	      4.87281350	      3.46101240	      2.92132924	      4.83272360	      4.66595836	      2.64111762	      1.81148579	      4.34023389	      6.59900564	      4.94125866	     24.57587968	     15.14641792	      4.28937193	      3.16782408	      5.24758999	     13.69648604	      7.66208548	      8.20548184	     10.73435528	      4.23304929	      2.17767011	      8.48231006	      8.87292518	      2.61559156	      2.18167588	     15.66614882	      4.80803862	      9.30430073	      3.01260153	      7.00077745	      2.57939030	      9.09377298	      6.72576621	      7.21477056	      3.13349969	      3.69364403	      3.84504656	     10.95531755	      4.91102599	      9.53721624	      8.53563280	      1.78963073	      6.67694424	      4.87281350	      3.46101240	      2.92132924	      4.83272360	      4.62060231	      2.64111762	      1.84076969	      4.34023389	      6.59900564	      4.94125866	     24.57587968	     15.14641792	      4.28937193	      3.16782408	      5.24758999	     13.19702845	      7.85922348	      9.04527404	      9.71876478	     18.52463162	      8.60426015	     39.89075650	     45.92499732	      3.67782580	      3.77850431	     10.36554263	      5.45352946	     14.94552156	      2.34319858	      6.74235105	      2.12049440	     29.48080223	     29.48080223	     10.76542664	     10.76542664	     28.39163528	     28.39163528	     29.76451592	     68.77355404	     11.59173164	     -6.50003655	      0.71286096	     12.48813835	    -29.76451592	    -68.77355404	    -11.59173164	      2.31972794	     -0.84404839	     -0.97587327	     44.08574510	     94.97054602	      9.35964022	     -1.82237215	     -1.02733732	     18.88598394	    -44.08574510	    -94.97054602	     -9.35964022	     -1.39199535	      0.83956062	     -1.84034559	     -0.63526003	     -6.15565495	      1.90007904	     -0.13670671	     -0.01459562	     -0.09340561	      0.63526003	      6.15565495	     -1.90007904	      0.89306990	      0.01359181	      0.34303114	      0.00000000	      0.00000000	      0.00000000	      0.00000000	      0.00000000	      0.00000000	      0.00000000	      0.00000000	      0.00000000	      0.00000000	      0.00000000	      0.00000000	     21.94083983	     50.24089001	      0.00000000	      0.00000000	      0.00000000	      0.95952820	     11.44410808	      4.62412095	      0.00000000	      5.80714168	    110.00000000	      0.00000000	      0.00000000	      0.03000000	     -0.03000000	      0.00000000
      0.23608191	      9.07836727	      6.71524279	      7.20334157	      3.12880411	      3.68853845	      3.83854765	     10.57038847	      4.82274868	     10.64701025	      9.09800463	      1.78580680	      6.66637371	      4.86557706	      3.45563033	      2.91667729	      4.82429374	      4.66107005	      2.63713330	      1.80936349	      4.33343432	      6.58863878	      4.93336030	     24.55667227	     15.12461736	      4.28280309	      3.16468511	      5.23656393	     13.66599944	      7.65022399	      8.18955675	     10.70423283	      4.22743349	      2.17063842	      8.46766410	      8.80870329	      2.62448339	      2.16842901	     15.63492529	      4.82968515	      9.31891302	      6.97136103	      6.95395548	      2.57938932	      9.07836727	      6.71524279	      7.20334157	      3.12880411	      3.68853845	      3.83854765	     10.93364608	      4.90277916	      9.51891540	      8.52255008	      1.78696122	      6.66637371	      4.86557706	      3.45563033	      2.91667729	      4.82429374	      4.61537823	      2.63713330	      1.83797583	      4.33343432	      6.58863878	      4.93336030	     24.55667227	     15.12461736	      4.28280309	      3.16468511	      5.23656393	     13.17201153	      7.84660223	      9.03048016	      9.70292103	     18.48331809	      8.58504647	     39.80675460	     45.89013926	      3.66894871	      3.77023692	     10.34653159	      5.44260057	     14.92193159	      2.33983119	      6.72743596	      2.11588372	     29.43652464	     29.43652464	     10.74785807	     10.74785807	     28.37582149	     28.37582149	     29.64666787	     68.51929051	     11.56114974	     -6.48101140	      0.70991089	     12.43849111	    -29.64666787	    -68.51929051	    -11.56114974	      2.31129202	     -0.84052603	     -0.97181653	     44.08220776	     95.02213449	      9.35920129	     -1.82089355	     -1.02734220	     18.88521863	    -44.08220776	    -95.02213449	     -9.35920129	     -1.39328493	      0.83967172	     -1.84092946	     -0.63312707	     -6.17405022	      1.89657002	     -0.13675155	     -0.01458901	     -0.09351546	      0.63312707	      6.17405022	     -1.89657002	      0.89182956	      0.01359067	      0.34233123	      0.00000000	      0.00000000	      0.00000000	      0.00000000	      0.00000000	      0.00000000	      0.00000000	      0.00000000	      0.00000000	      0.00000000	      0.00000000	      0.00000000	     21.96278788	     50.31150653	      0.00000000	      0.00000000	      0.00000000	      0.94765376	     11.42452867	      4.48378780	      0.00000000	      5.66797737	    110.00000000	      0.00000000	      0.00000000	      0.03000000	     -0.03000000	      0.00000000
      0.23721145	      9.05591582	      6.69990538	      7.18668470	      3.12196012	      3.68109719	      3.82907644	     10.54373891	      4.81333674	     10.60030942	      9.06493369	      1.77046596	      6.65096801	      4.85503108	      3.44778623	      2.90989762	      4.81200860	      4.65370563	      2.63132602	      1.80621510	      4.32352453	      6.57352998	      4.92184937	     24.52868062	     15.09284902	      4.27322899	      3.16011107	      5.22048332	     13.62131965	      7.63379626	      8.16647521	     10.66064495	      4.21823340	      2.15967086	      8.44341967	      8.71286547	      2.63608728	      2.14765981	     15.58929096	      4.86255147	      9.34206643	      7.69592045	      6.88953436	      2.58066320	      9.05591582	      6.69990538	      7.18668470	      3.12196012	      3.68109719	      3.82907644	     10.90205266	      4.89076061	      9.49223903	      8.50348206	      1.78307041	      6.65096801	      4.85503108	      3.44778623	      2.90989762	      4.81200860	      4.60776501	      2.63132602	      1.83390370	      4.32352453	      6.57352998	      4.92184937	     24.52868062	     15.09284902	      4.27322899	      3.16011107	      5.22048332	     13.13554682	      7.82820894	      9.00892111	      9.67983239	     18.42303115	      8.55700913	     39.68424767	     45.83932521	      3.65600744	      3.75818713	     10.31882359	      5.42666725	     14.88752776	      2.33492397	      6.70567830	      2.10915947	     29.37198830	     29.37198830	     10.72225400	     10.72225400	     28.35277577	     28.35277577	     29.49230645	     68.13174218	     11.51845969	     -6.45365806	      0.70610683	     12.37350354	    -29.49230645	    -68.13174218	    -11.51845969	      2.29858987	     -0.83596515	     -0.96659489	     44.06704461	     95.08226591	      9.36339731	     -1.82111524	     -1.02713770	     18.87984347	    -44.06704461	    -95.08226591	     -9.36339731	     -1.39469754	      0.83965291	     -1.84138640	     -0.63539953	     -6.19681955	      1.90348803	     -0.13727551	     -0.01464115	     -0.09386111	      0.63539953	      6.19681955	     -1.90348803	      0.89509520	      0.01363877	      0.34356413	      0.00000000	      0.00000000	      0.00000000	      0.00000000	      0.00000000	      0.00000000	      0.00000000	      0.00000000	      0.00000000	      0.00000000	      0.00000000	      0.00000000	     21.98990320	     50.40538274	      0.00000000	      0.00000000	      0.00000000	      0.97993128	     11.44496579	      4.40299904	      0.00000000	      5.58933651	    110.00000000	      0.00000000	      0.00000000	      0.03000000	     -0.03000000	      0.00000000
